<?xml version="1.0" encoding="UTF-8"?>
<!DOCTYPE svg PUBLIC "-//W3C//DTD SVG 1.1//EN" "http://www.w3.org/Graphics/SVG/1.1/DTD/svg11.dtd">
<!-- Creator: CorelDRAW 2019 (64-Bit) -->
<svg xmlns="http://www.w3.org/2000/svg" xml:space="preserve" width="1.282in" height="0.34in" version="1.1" style="shape-rendering:geometricPrecision; text-rendering:geometricPrecision; image-rendering:optimizeQuality; fill-rule:evenodd; clip-rule:evenodd"
viewBox="0 0 1282 340"
 xmlns:xlink="http://www.w3.org/1999/xlink"
 xmlns:xodm="http://www.corel.com/coreldraw/odm/2003">
 <defs>
  <style type="text/css">
   <![CDATA[
    .fil0 {fill:#2C7566;fill-rule:nonzero}
   ]]>
  </style>
 </defs>
 <g id="Layer_x0020_1">
  <metadata id="CorelCorpID_0Corel-Layer"/>
  <path class="fil0" d="M61.06 284.96c17.06,0 31.2,-3.75 42.4,-11.25 11.2,-7.51 16.8,-18.43 16.8,-32.75 -0.87,-19.32 -15.25,-33.81 -43.17,-43.47l-15 -6.22c-3.27,-1.04 -5.6,-2.06 -6.98,-3.1 1.67,-0.76 2.75,-2.42 2.75,-4.26 0,-2.59 -2.1,-4.69 -4.69,-4.69 -2.59,0 -4.69,2.1 -4.69,4.69 0,1.84 1.07,3.5 2.74,4.27 0,-4.31 2.84,-6.46 8.53,-6.46 7.06,0 12.31,3.61 15.76,10.87l38.52 -10.87c-9.3,-23.12 -27.23,-34.67 -53.77,-34.67 -15.85,0 -29.04,4.15 -39.55,12.43 -8.69,4.38 -13.95,15.17 -13.95,28.44 0,4.15 0.6,7.98 1.81,11.52 1.21,3.54 3.02,6.65 5.43,9.31 2.42,2.68 4.74,5 6.98,6.99 2.24,1.98 5.08,3.84 8.54,5.56 3.44,1.73 6.06,2.98 7.87,3.75 1.81,0.78 4.27,1.69 7.37,2.72l4.4 1.56 15.52 5.69c3.78,1.39 6.25,2.54 7.37,3.49 0,4.49 -4.21,6.74 -12.66,6.74 -12.41,0 -19.82,-5.52 -22.23,-16.56l-37.12 12.55c4.82,29.17 25.17,43.75 61.01,43.75l0 -0.01zm115.26 -96.79c17.06,0 29.63,-6.56 37.74,-19.66l0 16.82 53.25 0 0 -39.34 -53.25 0 0 74.54c0,15.35 -5.26,23.02 -15.77,23.02 -10.69,0 -16.03,-7.67 -16.03,-23.02l0 -74.54 -53.24 0 0 79.72c0,39.51 15.77,59.27 47.31,59.27l0 -96.81zm167.74 -2.84l0 22.26c0,-15.37 5.25,-23.04 15.76,-23.04 10.69,0 16.04,7.68 16.04,23.04l0 74.53 53.24 0 0 -79.71c0,-39.51 -15.76,-59.27 -47.3,-59.27 -17.06,0 -29.65,6.56 -37.74,19.67l0 -16.82 -53.26 0 0 136.13 53.26 0 0 -96.79zm160.24 0l0 22.26c0,-15.37 5.25,-23.04 15.77,-23.04 10.68,0 16.02,7.68 16.02,23.04l0 74.53 53.26 0 0 -79.71c0,-39.51 -15.77,-59.27 -47.31,-59.27 -17.06,0 -29.65,6.56 -37.74,19.67l0 -16.82 -53.26 0 0 136.13 53.26 0 0 -96.79zm172.39 154.76l86.34 -194.1 -55.59 0 -26.37 69.62 -23.52 -69.62 -58.17 0 56.61 122.93 -31.53 71.17 52.23 0zm142.4 -55.13c17.06,0 31.2,-3.75 42.39,-11.25 11.21,-7.51 16.81,-18.43 16.81,-32.75 -0.87,-19.32 -15.26,-33.81 -43.17,-43.47l-15 -6.22c-3.27,-1.04 -5.59,-2.06 -6.98,-3.1 1.67,-0.76 2.75,-2.42 2.75,-4.26 0,-2.59 -2.1,-4.69 -4.69,-4.69 -2.59,0 -4.69,2.1 -4.69,4.69 0,1.84 1.07,3.5 2.74,4.27 0,-4.31 2.84,-6.46 8.53,-6.46 7.06,0 12.32,3.61 15.77,10.87l38.52 -10.87c-9.31,-23.12 -27.22,-34.67 -53.77,-34.67 -15.85,0 -29.04,4.15 -39.55,12.43 -10.52,8.28 -15.77,19.06 -15.77,32.34 0,4.15 0.6,7.98 1.8,11.52 1.21,3.54 3.02,6.65 5.44,9.31 2.41,2.68 4.74,5 6.98,6.99 2.24,1.98 5.08,3.84 8.53,5.56 3.44,1.73 6.07,2.98 7.89,3.75 1.8,0.78 4.27,1.69 7.37,2.72l4.4 1.56 15.51 5.69c3.79,1.39 6.25,2.54 7.37,3.49 0,4.49 -4.22,6.74 -12.67,6.74 -12.4,0 -19.81,-5.52 -22.23,-16.56l-38.78 8.79c4.83,29.17 25.17,43.75 61.01,43.75l3.49 -0.15zm96.13 -244.05c9.48,0 16.8,-2.24 21.98,-6.73 5.16,-4.48 7.75,-10.18 7.75,-17.08 0,-7.06 -2.5,-12.81 -7.5,-17.2 0.94,92.37 -6.46,90.19 -16.28,90.19 -9.82,0 -17.24,2.2 -22.24,6.6 -5,4.4 -7.5,10.13 -7.5,17.21 0,6.9 2.59,12.59 7.76,17.08 5.18,4.48 12.5,6.72 21.98,6.72l-5.95 -96.79zm26.63 144.41l0 -39.34 -47.32 0 0 136.13 53.26 0 -5.94 -96.79zm80.63 2.84c18.09,0 31.01,-6.56 38.77,-19.66l0 16.82 53.25 0 0 -90.32 -53.25 0 0 68.06c-7.76,-13.28 -20.68,-19.93 -38.78,-19.93 -18.26,0 -33.48,6.69 -45.63,20.06 -12.15,13.36 -18.23,30.31 -18.23,50.85 0,20.52 6.08,37.48 18.23,50.85 12.15,13.37 27.37,20.05 45.63,20.05l0.01 -96.8zm14.48 -40.62c-7.59,0 -13.67,-2.85 -18.23,-8.54 -4.57,-5.7 -6.85,-12.95 -6.85,-21.74 0,-8.8 2.24,-16.04 6.72,-21.74 4.66,-5.7 10.77,-8.54 18.35,-8.54 7.58,0 13.66,2.84 18.23,8.54 4.56,5.69 6.84,12.94 6.84,21.74 0,8.79 -2.28,16.04 -6.84,21.74 -4.57,5.69 -10.65,8.54 -18.23,8.54l0.01 0zm173.93 40.62c27.05,0 48.17,-7.85 63.33,-23.54l-21.98 -29.51c-10.85,8.8 -23.09,13.2 -36.71,13.2 -10.33,0 -18.74,-2.33 -25.2,-6.98 -6.46,-4.67 -9.69,-9.16 -9.69,-13.47l100.04 0c0.87,-3.1 1.29,-7.16 1.29,-12.16 0,-21.4 -7.02,-38.3 -21.06,-50.73 -14.05,-12.43 -32.01,-18.63 -53.91,-18.63 -23.43,0 -41.95,6.99 -55.57,20.97 -13.61,13.97 -20.43,30.79 -20.43,50.46 0,20.19 7.19,36.97 21.58,50.34 14.4,13.36 33.82,20.05 58.3,20.05l0 0zm23 -84.88l-53.25 0c0.34,-6.39 3.1,-11.25 8.27,-14.63 5.16,-3.37 11.29,-5.04 18.35,-5.04 7.06,0 13.19,1.72 18.35,5.18 5.18,3.45 7.93,8.28 8.27,14.49l0 0z"/>
 </g>
</svg>
